<svg xmlns="http://www.w3.org/2000/svg" version="1.1" xmlns:xlink="http://www.w3.org/1999/xlink" width="1000" height="1000"><style>
    #light-icon {
      display: inline;
    }
    #dark-icon {
      display: none;
    }

    @media (prefers-color-scheme: dark) {
      #light-icon {
        display: none;
      }
      #dark-icon {
        display: inline;
      }
    }
  </style><g id="light-icon"><svg xmlns="http://www.w3.org/2000/svg" version="1.1" xmlns:xlink="http://www.w3.org/1999/xlink" width="1000" height="1000"><g clip-path="url(#SvgjsClipPath1209)"><rect width="1000" height="1000" fill="#ffffff"></rect><g transform="matrix(1.4111111854296334,0,0,1.4111111854296334,5.684341886080802e-14,5.684341886080802e-14)"><svg xmlns="http://www.w3.org/2000/svg" version="1.1" xmlns:xlink="http://www.w3.org/1999/xlink" width="708.66138" height="708.66138"><svg xmlns:dc="http://purl.org/dc/elements/1.1/" xmlns:cc="http://creativecommons.org/ns#" xmlns:rdf="http://www.w3.org/1999/02/22-rdf-syntax-ns#" xmlns:svg="http://www.w3.org/2000/svg" xmlns="http://www.w3.org/2000/svg" xmlns:sodipodi="http://sodipodi.sourceforge.net/DTD/sodipodi-0.dtd" xmlns:inkscape="http://www.inkscape.org/namespaces/inkscape" width="708.66138" height="708.66138" id="svg3021" version="1.1" inkscape:version="0.48.2 r9819" sodipodi:docname="заготовка для знаков.svg">
  <defs id="defs3023">
 <style id="style3033" type="text/css">
   
    .str0 {stroke:#D9DADA;stroke-width:0.749401}
    .str1 {stroke:#231F20;stroke-width:0.749401}
    .fil0 {fill:none}
    .fil2 {fill:#231F20}
    .fil1 {fill:#ED1C24}
   
  </style>

  
  
  
  
  
 <clipPath id="SvgjsClipPath1209"><rect width="1000" height="1000" x="0" y="0" rx="0" ry="0"></rect></clipPath></defs>
  <sodipodi:namedview id="base" pagecolor="#ffffff" bordercolor="#666666" borderopacity="1.0" inkscape:pageopacity="1" inkscape:pageshadow="2" inkscape:zoom="0.7" inkscape:cx="411.66109" inkscape:cy="330.26457" inkscape:document-units="cm" inkscape:current-layer="layer1" showgrid="false" units="cm" inkscape:window-width="1920" inkscape:window-height="1031" inkscape:window-x="-4" inkscape:window-y="-4" inkscape:window-maximized="1"></sodipodi:namedview>
  <metadata id="metadata3026">
    <rdf:rdf>
      <cc:work rdf:about="">
        <dc:format>image/svg+xml</dc:format>
        <dc:type rdf:resource="http://purl.org/dc/dcmitype/StillImage"></dc:type>
        <dc:title></dc:title>
      </cc:work>
    </rdf:rdf>
  </metadata>
  <g inkscape:label="Layer 1" inkscape:groupmode="layer" id="layer1" transform="translate(0,-343.69947)">
    <g id="g3068">
      <path style="fill:#ed1c24;fill-rule:evenodd;stroke:none" inkscape:connector-curvature="0" class="fil1" d="m 354.46582,450.96246 c 137.54579,0 250.14993,112.23735 250.14993,250.14993 0,58.6862 -20.54016,112.97094 -54.65152,155.88521 L 198.9474,505.98077 c 42.91427,-34.11136 96.83222,-54.65152 155.88521,-54.65152 z M 510.35104,896.244 c -42.91427,34.11136 -96.83222,54.65152 -155.88522,54.65152 -137.54578,0 -250.14992,-112.23735 -250.14992,-249.78313 0,-58.68621 20.54016,-112.97095 54.65152,-155.88522 L 509.98425,896.244 z M 354.46582,381.63938 c 176.05861,0 319.47301,143.4144 319.47301,319.47301 0,176.0586 -143.4144,319.47301 -319.47301,319.47301 -176.0586,0 -319.473002,-143.41441 -319.473002,-319.47301 0,-176.05861 143.414402,-319.47301 319.473002,-319.47301 z" id="path3039"></path>
      <path sodipodi:nodetypes="ssssscccccccccccccccccccccccccccccc" style="fill:#231f20;fill-rule:evenodd;stroke:#000000;stroke-width:0.27487186" inkscape:connector-curvature="0" class="fil2 str1" d="m 289.54422,482.50628 c 22.00732,0 39.61318,17.97266 39.61318,39.61319 0,22.00733 -17.97265,39.61318 -39.61318,39.61318 -22.00734,0 -39.61319,-17.97264 -39.61319,-39.61318 0,-22.00732 17.97264,-39.61319 39.61319,-39.61319 z m -17.97266,86.19537 c 29.37453,10.58031 56.85226,-2.93432 63.08767,-29.7099 l 83.63726,28.96374 52.44137,106.38132 -35.2243,15.82219 -43.63528,-88.81316 -28.24274,-11.73724 53.18437,117.00562 3.66789,21.27374 -149.64981,-149.64981 c 0.36678,-5.13504 0.36678,-8.80293 0.73357,-9.5365 z m 185.22832,274.35798 26.40879,52.45079 -36.67887,22.37412 -53.18437,-95.36508 -4.40147,-47.31575 z m -92.0577,-93.14863 -41.08661,57.93691 -39.97998,115.53846 -38.87961,-15.77191 38.87961,-114.4381 49.52277,-74.07561 31.17704,31.17704 z m -82.90053,-81.80961 -61.62051,57.58584 -22.37411,-27.50916 58.68619,-55.3851 z" id="path3041"></path>
    </g>
  </g>
</svg></svg></g></g></svg></g><g id="dark-icon"><svg xmlns="http://www.w3.org/2000/svg" version="1.1" xmlns:xlink="http://www.w3.org/1999/xlink" width="1000" height="1000"><g clip-path="url(#SvgjsClipPath1210)"><rect width="1000" height="1000" fill="#ffffff"></rect><g transform="matrix(1.4111111854296334,0,0,1.4111111854296334,5.684341886080802e-14,5.684341886080802e-14)"><svg xmlns="http://www.w3.org/2000/svg" version="1.1" xmlns:xlink="http://www.w3.org/1999/xlink" width="708.66138" height="708.66138"><svg xmlns:dc="http://purl.org/dc/elements/1.1/" xmlns:cc="http://creativecommons.org/ns#" xmlns:rdf="http://www.w3.org/1999/02/22-rdf-syntax-ns#" xmlns:svg="http://www.w3.org/2000/svg" xmlns="http://www.w3.org/2000/svg" xmlns:sodipodi="http://sodipodi.sourceforge.net/DTD/sodipodi-0.dtd" xmlns:inkscape="http://www.inkscape.org/namespaces/inkscape" width="708.66138" height="708.66138" id="svg3021" version="1.1" inkscape:version="0.48.2 r9819" sodipodi:docname="заготовка для знаков.svg">
  <defs id="defs3023">
 <style id="style3033" type="text/css">
   
    .str0 {stroke:#D9DADA;stroke-width:0.749401}
    .str1 {stroke:#231F20;stroke-width:0.749401}
    .fil0 {fill:none}
    .fil2 {fill:#231F20}
    .fil1 {fill:#ED1C24}
   
  </style>

  
  
  
  
  
 <clipPath id="SvgjsClipPath1210"><rect width="1000" height="1000" x="0" y="0" rx="0" ry="0"></rect></clipPath></defs>
  <sodipodi:namedview id="base" pagecolor="#ffffff" bordercolor="#666666" borderopacity="1.0" inkscape:pageopacity="1" inkscape:pageshadow="2" inkscape:zoom="0.7" inkscape:cx="411.66109" inkscape:cy="330.26457" inkscape:document-units="cm" inkscape:current-layer="layer1" showgrid="false" units="cm" inkscape:window-width="1920" inkscape:window-height="1031" inkscape:window-x="-4" inkscape:window-y="-4" inkscape:window-maximized="1"></sodipodi:namedview>
  <metadata id="metadata3026">
    <rdf:rdf>
      <cc:work rdf:about="">
        <dc:format>image/svg+xml</dc:format>
        <dc:type rdf:resource="http://purl.org/dc/dcmitype/StillImage"></dc:type>
        <dc:title></dc:title>
      </cc:work>
    </rdf:rdf>
  </metadata>
  <g inkscape:label="Layer 1" inkscape:groupmode="layer" id="layer1" transform="translate(0,-343.69947)">
    <g id="g3068">
      <path style="fill:#ed1c24;fill-rule:evenodd;stroke:none" inkscape:connector-curvature="0" class="fil1" d="m 354.46582,450.96246 c 137.54579,0 250.14993,112.23735 250.14993,250.14993 0,58.6862 -20.54016,112.97094 -54.65152,155.88521 L 198.9474,505.98077 c 42.91427,-34.11136 96.83222,-54.65152 155.88521,-54.65152 z M 510.35104,896.244 c -42.91427,34.11136 -96.83222,54.65152 -155.88522,54.65152 -137.54578,0 -250.14992,-112.23735 -250.14992,-249.78313 0,-58.68621 20.54016,-112.97095 54.65152,-155.88522 L 509.98425,896.244 z M 354.46582,381.63938 c 176.05861,0 319.47301,143.4144 319.47301,319.47301 0,176.0586 -143.4144,319.47301 -319.47301,319.47301 -176.0586,0 -319.473002,-143.41441 -319.473002,-319.47301 0,-176.05861 143.414402,-319.47301 319.473002,-319.47301 z" id="path3039"></path>
      <path sodipodi:nodetypes="ssssscccccccccccccccccccccccccccccc" style="fill:#231f20;fill-rule:evenodd;stroke:#000000;stroke-width:0.27487186" inkscape:connector-curvature="0" class="fil2 str1" d="m 289.54422,482.50628 c 22.00732,0 39.61318,17.97266 39.61318,39.61319 0,22.00733 -17.97265,39.61318 -39.61318,39.61318 -22.00734,0 -39.61319,-17.97264 -39.61319,-39.61318 0,-22.00732 17.97264,-39.61319 39.61319,-39.61319 z m -17.97266,86.19537 c 29.37453,10.58031 56.85226,-2.93432 63.08767,-29.7099 l 83.63726,28.96374 52.44137,106.38132 -35.2243,15.82219 -43.63528,-88.81316 -28.24274,-11.73724 53.18437,117.00562 3.66789,21.27374 -149.64981,-149.64981 c 0.36678,-5.13504 0.36678,-8.80293 0.73357,-9.5365 z m 185.22832,274.35798 26.40879,52.45079 -36.67887,22.37412 -53.18437,-95.36508 -4.40147,-47.31575 z m -92.0577,-93.14863 -41.08661,57.93691 -39.97998,115.53846 -38.87961,-15.77191 38.87961,-114.4381 49.52277,-74.07561 31.17704,31.17704 z m -82.90053,-81.80961 -61.62051,57.58584 -22.37411,-27.50916 58.68619,-55.3851 z" id="path3041"></path>
    </g>
  </g>
</svg></svg></g></g></svg></g></svg>